<mxfile host="drawio-plugin" modified="2023-07-18T13:03:42.790Z" agent="5.0 (Windows NT 6.2; Win64; x64) AppleWebKit/537.36 (KHTML, like Gecko) Chrome/104.0.5112.102 Safari/537.36" version="20.5.3" etag="KpA8AMcHpcFjv-1ZrPaw" type="embed"><diagram id="9-RTK4xd1evoTx4I6qmm" name="Page-1"><mxGraphModel dx="1022" dy="771" grid="1" gridSize="10" guides="1" tooltips="1" connect="1" arrows="1" fold="1" page="1" pageScale="1" pageWidth="850" pageHeight="1100" math="0" shadow="0"><root><mxCell id="0"/><mxCell id="1" parent="0"/><mxCell id="5" style="edgeStyle=orthogonalEdgeStyle;rounded=0;orthogonalLoop=1;jettySize=auto;html=1;fontSize=11;" edge="1" parent="1" source="2" target="3"><mxGeometry relative="1" as="geometry"/></mxCell><mxCell id="6" style="edgeStyle=orthogonalEdgeStyle;rounded=0;orthogonalLoop=1;jettySize=auto;html=1;fontSize=11;" edge="1" parent="1" source="2" target="4"><mxGeometry relative="1" as="geometry"/></mxCell><mxCell id="2" value="MatchingServer" style="rounded=0;whiteSpace=wrap;html=1;" vertex="1" parent="1"><mxGeometry x="365" y="160" width="120" height="60" as="geometry"/></mxCell><mxCell id="3" value="LobbyRoomServer" style="whiteSpace=wrap;html=1;" vertex="1" parent="1"><mxGeometry x="220" y="330" width="120" height="60" as="geometry"/></mxCell><mxCell id="4" value="&lt;font style=&quot;font-size: 11px;&quot;&gt;MiniGameRoomServer&lt;/font&gt;" style="whiteSpace=wrap;html=1;" vertex="1" parent="1"><mxGeometry x="520" y="330" width="120" height="60" as="geometry"/></mxCell><mxCell id="7" value="" style="ellipse;whiteSpace=wrap;html=1;fontSize=11;" vertex="1" parent="1"><mxGeometry x="370" y="280" width="120" height="80" as="geometry"/></mxCell></root></mxGraphModel></diagram></mxfile>